<svg xmlns:dc="http://purl.org/dc/elements/1.1/" xmlns:cc="http://creativecommons.org/ns#"
	xmlns:rdf="http://www.w3.org/1999/02/22-rdf-syntax-ns#" xmlns:svg="http://www.w3.org/2000/svg"
	xmlns="http://www.w3.org/2000/svg" id="svg19" version="1.1" viewBox="201.26 323.05 192.76 192.76">
	<metadata id="metadata25">
		<rdf:RDF>
			<cc:Work rdf:about="">
				<dc:format>image/svg+xml</dc:format>
				<dc:type rdf:resource="http://purl.org/dc/dcmitype/StillImage"></dc:type>
			</cc:Work>
		</rdf:RDF>
	</metadata>
	<defs id="defs23"></defs>
	<g id="Layer1000">
		<path id="path4" style="fill:none;fill-rule:evenodd;display: none;"
			d="m 411.6365,419.4255 c 0.6281,62.9575 -50.0879,111.1459 -114.0001,114.0001 -63.9122,2.8542 -113.7232,-66.1773 -114.0001,-114.0001 -0.1718,-29.6861 6.9347,-50.4516 24.55,-70.5189 2.8678,-3.5013 17.4067,-1.2742 12.6992,4.2993 -16.1019,18.5358 -25.85,42.7388 -25.85,69.2195 0,58.3217 47.2791,105.6008 105.6008,105.6008 58.3217,0 105.6007,-47.2791 105.6007,-105.6008 0,-58.3217 -47.279,-105.6007 -105.6007,-105.6007 -25.5765,0 -49.0286,9.0938 -67.3013,24.2231 -3.6502,2.7644 -8.3137,-7.2691 -2.0594,-13.7596 77.5004,-48.8891 179.4654,2.4035 180.3609,92.1373 z">
		</path>
		<path id="path6" style="fill:none"
			d="M 300.6363,316.8247 A 105.6008,105.6008 0 0 1 406.237,422.4254 105.6008,105.6008 0 1 1 300.6363,316.8247 Z">
		</path>
		<path id="path8" style="fill:none;fill-rule:evenodd"
			d="m 297.6365,323.0476 a 96.3781,96.3781 0 0 1 96.3781,96.3781 96.3781,96.3781 0 1 1 -96.3781,-96.3781 z"></path>
		<path id="path10" style="fill:#f1e4a5;fill-rule:evenodd"
			d="m 297.6364,328.7169 c 50.0967,0 90.7086,40.6119 90.7086,90.7086 0,50.0967 -40.6119,90.7087 -90.7086,90.7087 -50.0967,0 -90.7087,-40.612 -90.7087,-90.7087 0,-16.124 4.0468,-31.3568 11.5872,-44.384 2.5146,-4.3444 10.4528,-14.0533 24.8817,0.3756 5.9006,8.1124 21.2034,-3.4158 12.3037,-12.3038 -15.8632,-13.1635 -0.2452,-24.6033 8.8467,-28.1687 10.2512,-4.0201 21.4123,-6.2277 33.0894,-6.2277 z">
		</path>
		<path id="path12" style="fill:none;fill-rule:evenodd"
			d="m 331.4846,335.2487 c 9.1431,3.6817 17.549,8.8073 24.9341,15.0976 L 249.4508,496.2841 c -8.2936,-5.2107 -15.6864,-11.7232 -21.8866,-19.2555 z">
		</path>
		<path id="path14" style="fill:none;fill-rule:evenodd"
			d="m 363.4988,357.0582 c 1.5908,1.6795 3.1156,3.4211 4.5754,5.2183 L 264.3259,503.822 c -2.1586,-0.8527 -4.2752,-1.789 -6.349,-2.7987 z">
		</path>
		<path id="path16" style="fill:none;fill-rule:evenodd"
			d="m 372.9033,368.7854 c 0.5786,0.8583 1.1381,1.73 1.6878,2.6087 l -99.6027,135.8896 c -1.0049,-0.2583 -2.0004,-0.5389 -2.9914,-0.8306 z">
		</path>
	</g>
</svg>